<svg xmlns="http://www.w3.org/2000/svg" xmlns:xlink="http://www.w3.org/1999/xlink" width="500" zoomAndPan="magnify" viewBox="0 0 375 374.999991" height="500" preserveAspectRatio="xMidYMid meet" version="1.0"><defs><g/><clipPath id="a132da2f63"><path d="M 39.421875 39.421875 L 335.671875 39.421875 L 335.671875 335.671875 L 39.421875 335.671875 Z M 39.421875 39.421875 " clip-rule="nonzero"/></clipPath><clipPath id="e74d3cabed"><path d="M 47.238281 47.238281 L 327.738281 47.238281 L 327.738281 327.738281 L 47.238281 327.738281 Z M 47.238281 47.238281 " clip-rule="nonzero"/></clipPath><clipPath id="9825b0bb6d"><path d="M 120 120 L 256.613281 120 L 256.613281 258.230469 L 120 258.230469 Z M 120 120 " clip-rule="nonzero"/></clipPath><clipPath id="5c0ca5fd35"><path d="M 172 119.480469 L 178 119.480469 L 178 125 L 172 125 Z M 172 119.480469 " clip-rule="nonzero"/></clipPath><clipPath id="42e7f1c18f"><path d="M 118.613281 165 L 128 165 L 128 170 L 118.613281 170 Z M 118.613281 165 " clip-rule="nonzero"/></clipPath><clipPath id="6dfe7b43cb"><path d="M 118.613281 186 L 127 186 L 127 195 L 118.613281 195 Z M 118.613281 186 " clip-rule="nonzero"/></clipPath><clipPath id="9a7db53c62"><path d="M 194 119.480469 L 199 119.480469 L 199 126 L 194 126 Z M 194 119.480469 " clip-rule="nonzero"/></clipPath></defs><g clip-path="url(#a132da2f63)"><path fill="#eeeae0" d="M 335.578125 187.5 C 335.578125 189.921875 335.519531 192.34375 335.398438 194.765625 C 335.28125 197.1875 335.101562 199.601562 334.863281 202.015625 C 334.628906 204.425781 334.332031 206.832031 333.976562 209.226562 C 333.621094 211.625 333.207031 214.011719 332.734375 216.386719 C 332.257812 218.765625 331.730469 221.128906 331.140625 223.480469 C 330.550781 225.832031 329.90625 228.164062 329.203125 230.484375 C 328.5 232.804688 327.738281 235.105469 326.921875 237.386719 C 326.105469 239.667969 325.234375 241.929688 324.304688 244.167969 C 323.378906 246.40625 322.398438 248.621094 321.359375 250.8125 C 320.324219 253.003906 319.234375 255.164062 318.09375 257.304688 C 316.949219 259.441406 315.757812 261.546875 314.511719 263.628906 C 313.265625 265.707031 311.96875 267.753906 310.621094 269.765625 C 309.277344 271.78125 307.878906 273.761719 306.4375 275.710938 C 304.992188 277.65625 303.503906 279.566406 301.964844 281.441406 C 300.429688 283.3125 298.847656 285.148438 297.21875 286.941406 C 295.589844 288.738281 293.921875 290.492188 292.207031 292.207031 C 290.492188 293.921875 288.738281 295.589844 286.941406 297.21875 C 285.148438 298.847656 283.3125 300.429688 281.4375 301.964844 C 279.566406 303.503906 277.65625 304.992188 275.710938 306.4375 C 273.761719 307.878906 271.78125 309.277344 269.765625 310.621094 C 267.753906 311.96875 265.707031 313.265625 263.628906 314.511719 C 261.546875 315.757812 259.441406 316.949219 257.304688 318.09375 C 255.164062 319.234375 253 320.324219 250.8125 321.359375 C 248.621094 322.398438 246.40625 323.378906 244.167969 324.304688 C 241.925781 325.234375 239.667969 326.105469 237.386719 326.921875 C 235.105469 327.738281 232.804688 328.5 230.484375 329.203125 C 228.164062 329.90625 225.832031 330.550781 223.480469 331.140625 C 221.128906 331.730469 218.765625 332.257812 216.386719 332.734375 C 214.011719 333.207031 211.625 333.621094 209.226562 333.976562 C 206.832031 334.332031 204.425781 334.628906 202.015625 334.863281 C 199.601562 335.101562 197.1875 335.28125 194.765625 335.398438 C 192.34375 335.519531 189.921875 335.578125 187.5 335.578125 C 185.078125 335.578125 182.65625 335.519531 180.234375 335.398438 C 177.8125 335.28125 175.398438 335.101562 172.984375 334.863281 C 170.574219 334.628906 168.167969 334.332031 165.773438 333.976562 C 163.375 333.621094 160.988281 333.207031 158.609375 332.734375 C 156.234375 332.257812 153.871094 331.730469 151.519531 331.140625 C 149.167969 330.550781 146.832031 329.90625 144.515625 329.203125 C 142.195312 328.5 139.894531 327.738281 137.613281 326.921875 C 135.332031 326.105469 133.070312 325.234375 130.832031 324.304688 C 128.59375 323.378906 126.378906 322.398438 124.1875 321.359375 C 121.996094 320.324219 119.832031 319.234375 117.695312 318.09375 C 115.558594 316.949219 113.449219 315.757812 111.371094 314.511719 C 109.292969 313.265625 107.246094 311.96875 105.230469 310.621094 C 103.21875 309.277344 101.234375 307.878906 99.289062 306.4375 C 97.34375 304.992188 95.433594 303.503906 93.558594 301.964844 C 91.6875 300.429688 89.851562 298.847656 88.054688 297.21875 C 86.261719 295.589844 84.507812 293.921875 82.792969 292.207031 C 81.078125 290.492188 79.410156 288.738281 77.78125 286.941406 C 76.152344 285.148438 74.570312 283.3125 73.035156 281.4375 C 71.496094 279.566406 70.007812 277.65625 68.5625 275.710938 C 67.117188 273.761719 65.722656 271.78125 64.378906 269.765625 C 63.03125 267.753906 61.734375 265.707031 60.488281 263.628906 C 59.242188 261.546875 58.050781 259.441406 56.90625 257.304688 C 55.765625 255.164062 54.675781 253.003906 53.640625 250.8125 C 52.601562 248.621094 51.621094 246.40625 50.695312 244.167969 C 49.765625 241.929688 48.894531 239.667969 48.078125 237.386719 C 47.261719 235.105469 46.5 232.804688 45.796875 230.484375 C 45.09375 228.164062 44.449219 225.832031 43.859375 223.480469 C 43.269531 221.128906 42.738281 218.765625 42.265625 216.386719 C 41.792969 214.011719 41.378906 211.625 41.023438 209.226562 C 40.667969 206.832031 40.371094 204.425781 40.132812 202.015625 C 39.898438 199.601562 39.71875 197.1875 39.601562 194.765625 C 39.480469 192.34375 39.421875 189.921875 39.421875 187.5 C 39.421875 185.078125 39.480469 182.65625 39.601562 180.234375 C 39.71875 177.8125 39.898438 175.398438 40.132812 172.984375 C 40.371094 170.574219 40.667969 168.167969 41.023438 165.773438 C 41.378906 163.375 41.792969 160.988281 42.265625 158.609375 C 42.738281 156.234375 43.269531 153.871094 43.859375 151.519531 C 44.449219 149.167969 45.09375 146.832031 45.796875 144.515625 C 46.5 142.195312 47.261719 139.894531 48.078125 137.613281 C 48.894531 135.332031 49.765625 133.070312 50.695312 130.832031 C 51.621094 128.59375 52.601562 126.378906 53.640625 124.1875 C 54.675781 121.996094 55.765625 119.832031 56.90625 117.695312 C 58.050781 115.558594 59.242188 113.449219 60.488281 111.371094 C 61.734375 109.292969 63.03125 107.246094 64.378906 105.230469 C 65.722656 103.21875 67.117188 101.234375 68.5625 99.289062 C 70.007812 97.34375 71.496094 95.433594 73.035156 93.558594 C 74.570312 91.6875 76.152344 89.851562 77.78125 88.054688 C 79.410156 86.261719 81.078125 84.507812 82.792969 82.792969 C 84.507812 81.078125 86.261719 79.410156 88.054688 77.78125 C 89.851562 76.152344 91.6875 74.570312 93.558594 73.035156 C 95.433594 71.496094 97.34375 70.007812 99.289062 68.5625 C 101.234375 67.117188 103.21875 65.722656 105.230469 64.378906 C 107.246094 63.03125 109.292969 61.734375 111.371094 60.488281 C 113.449219 59.242188 115.558594 58.050781 117.695312 56.90625 C 119.832031 55.765625 121.996094 54.675781 124.1875 53.640625 C 126.378906 52.601562 128.59375 51.621094 130.832031 50.695312 C 133.070312 49.765625 135.332031 48.894531 137.613281 48.078125 C 139.894531 47.261719 142.195312 46.5 144.515625 45.796875 C 146.832031 45.09375 149.167969 44.449219 151.519531 43.859375 C 153.871094 43.269531 156.234375 42.738281 158.609375 42.265625 C 160.988281 41.792969 163.375 41.378906 165.773438 41.023438 C 168.167969 40.667969 170.574219 40.371094 172.984375 40.132812 C 175.398438 39.898438 177.8125 39.71875 180.234375 39.601562 C 182.65625 39.480469 185.078125 39.421875 187.5 39.421875 C 189.921875 39.421875 192.34375 39.480469 194.765625 39.601562 C 197.1875 39.71875 199.601562 39.898438 202.015625 40.132812 C 204.425781 40.371094 206.832031 40.667969 209.226562 41.023438 C 211.625 41.378906 214.011719 41.792969 216.386719 42.265625 C 218.765625 42.738281 221.128906 43.269531 223.480469 43.859375 C 225.832031 44.449219 228.164062 45.09375 230.484375 45.796875 C 232.804688 46.5 235.105469 47.261719 237.386719 48.078125 C 239.667969 48.894531 241.929688 49.765625 244.167969 50.695312 C 246.40625 51.621094 248.621094 52.601562 250.8125 53.640625 C 253.003906 54.675781 255.167969 55.765625 257.304688 56.90625 C 259.441406 58.050781 261.546875 59.242188 263.628906 60.488281 C 265.707031 61.734375 267.753906 63.03125 269.765625 64.378906 C 271.78125 65.722656 273.761719 67.117188 275.710938 68.5625 C 277.65625 70.007812 279.566406 71.496094 281.4375 73.035156 C 283.3125 74.570312 285.148438 76.152344 286.941406 77.78125 C 288.738281 79.410156 290.492188 81.078125 292.207031 82.792969 C 293.921875 84.507812 295.589844 86.261719 297.21875 88.054688 C 298.847656 89.851562 300.429688 91.6875 301.964844 93.558594 C 303.503906 95.433594 304.992188 97.34375 306.4375 99.289062 C 307.878906 101.234375 309.277344 103.21875 310.621094 105.230469 C 311.96875 107.246094 313.265625 109.292969 314.511719 111.371094 C 315.757812 113.449219 316.949219 115.558594 318.09375 117.695312 C 319.234375 119.832031 320.324219 121.996094 321.359375 124.1875 C 322.398438 126.378906 323.378906 128.59375 324.304688 130.832031 C 325.234375 133.070312 326.105469 135.332031 326.921875 137.613281 C 327.738281 139.894531 328.5 142.195312 329.203125 144.515625 C 329.90625 146.832031 330.550781 149.167969 331.140625 151.519531 C 331.730469 153.871094 332.257812 156.234375 332.734375 158.609375 C 333.207031 160.988281 333.621094 163.375 333.976562 165.773438 C 334.332031 168.167969 334.628906 170.574219 334.863281 172.984375 C 335.101562 175.398438 335.28125 177.8125 335.398438 180.234375 C 335.519531 182.65625 335.578125 185.078125 335.578125 187.5 Z M 335.578125 187.5 " fill-opacity="1" fill-rule="nonzero"/></g><path fill="#eeeae0" d="M 324.488281 187.492188 C 324.488281 189.734375 324.433594 191.976562 324.324219 194.214844 C 324.214844 196.453125 324.050781 198.6875 323.832031 200.917969 C 323.609375 203.148438 323.335938 205.375 323.007812 207.589844 C 322.679688 209.808594 322.296875 212.015625 321.859375 214.214844 C 321.421875 216.414062 320.929688 218.601562 320.386719 220.773438 C 319.839844 222.949219 319.242188 225.109375 318.589844 227.253906 C 317.941406 229.398438 317.238281 231.527344 316.484375 233.636719 C 315.726562 235.75 314.921875 237.839844 314.0625 239.910156 C 313.207031 241.980469 312.296875 244.03125 311.339844 246.058594 C 310.378906 248.082031 309.371094 250.085938 308.316406 252.0625 C 307.257812 254.039062 306.15625 255.988281 305.003906 257.910156 C 303.851562 259.835938 302.652344 261.726562 301.40625 263.59375 C 300.160156 265.457031 298.871094 267.289062 297.535156 269.089844 C 296.199219 270.890625 294.820312 272.65625 293.398438 274.390625 C 291.976562 276.121094 290.511719 277.820312 289.007812 279.480469 C 287.5 281.140625 285.957031 282.761719 284.371094 284.347656 C 282.785156 285.933594 281.164062 287.480469 279.503906 288.984375 C 277.839844 290.488281 276.144531 291.953125 274.410156 293.375 C 272.679688 294.796875 270.910156 296.175781 269.109375 297.511719 C 267.3125 298.847656 265.476562 300.136719 263.613281 301.382812 C 261.75 302.628906 259.855469 303.828125 257.933594 304.980469 C 256.011719 306.132812 254.0625 307.238281 252.085938 308.292969 C 250.109375 309.351562 248.105469 310.359375 246.078125 311.316406 C 244.054688 312.273438 242.003906 313.183594 239.933594 314.039062 C 237.863281 314.898438 235.773438 315.707031 233.660156 316.460938 C 231.550781 317.214844 229.421875 317.917969 227.277344 318.570312 C 225.132812 319.21875 222.972656 319.816406 220.796875 320.363281 C 218.625 320.90625 216.4375 321.398438 214.238281 321.835938 C 212.039062 322.273438 209.832031 322.65625 207.613281 322.984375 C 205.398438 323.3125 203.171875 323.589844 200.941406 323.808594 C 198.710938 324.027344 196.476562 324.191406 194.238281 324.300781 C 191.996094 324.414062 189.757812 324.46875 187.515625 324.46875 C 185.273438 324.46875 183.035156 324.414062 180.792969 324.300781 C 178.554688 324.191406 176.320312 324.027344 174.089844 323.808594 C 171.859375 323.589844 169.636719 323.3125 167.417969 322.984375 C 165.199219 322.65625 162.992188 322.273438 160.792969 321.835938 C 158.59375 321.398438 156.410156 320.90625 154.234375 320.363281 C 152.058594 319.816406 149.898438 319.21875 147.753906 318.570312 C 145.609375 317.917969 143.480469 317.214844 141.371094 316.460938 C 139.261719 315.707031 137.167969 314.898438 135.097656 314.039062 C 133.027344 313.183594 130.976562 312.273438 128.953125 311.316406 C 126.925781 310.359375 124.921875 309.351562 122.945312 308.292969 C 120.96875 307.238281 119.019531 306.132812 117.097656 304.980469 C 115.175781 303.828125 113.28125 302.628906 111.417969 301.382812 C 109.554688 300.136719 107.722656 298.847656 105.921875 297.511719 C 104.121094 296.175781 102.351562 294.796875 100.621094 293.375 C 98.886719 291.953125 97.191406 290.488281 95.53125 288.984375 C 93.867188 287.480469 92.246094 285.933594 90.660156 284.347656 C 89.074219 282.761719 87.53125 281.140625 86.023438 279.480469 C 84.519531 277.820312 83.054688 276.121094 81.632812 274.390625 C 80.210938 272.65625 78.832031 270.890625 77.496094 269.089844 C 76.160156 267.289062 74.871094 265.457031 73.625 263.59375 C 72.378906 261.726562 71.183594 259.835938 70.03125 257.914062 C 68.875 255.988281 67.773438 254.039062 66.714844 252.0625 C 65.660156 250.085938 64.652344 248.082031 63.691406 246.058594 C 62.734375 244.03125 61.828125 241.980469 60.96875 239.910156 C 60.109375 237.839844 59.304688 235.75 58.546875 233.636719 C 57.792969 231.527344 57.089844 229.398438 56.441406 227.253906 C 55.789062 225.109375 55.191406 222.949219 54.648438 220.773438 C 54.101562 218.601562 53.609375 216.414062 53.171875 214.214844 C 52.738281 212.015625 52.351562 209.808594 52.023438 207.589844 C 51.695312 205.375 51.421875 203.148438 51.203125 200.917969 C 50.980469 198.6875 50.816406 196.453125 50.707031 194.214844 C 50.597656 191.976562 50.542969 189.734375 50.542969 187.492188 C 50.542969 185.25 50.597656 183.011719 50.707031 180.773438 C 50.816406 178.535156 50.980469 176.296875 51.203125 174.066406 C 51.421875 171.835938 51.695312 169.613281 52.023438 167.394531 C 52.351562 165.179688 52.738281 162.96875 53.171875 160.769531 C 53.609375 158.574219 54.101562 156.386719 54.648438 154.210938 C 55.191406 152.035156 55.789062 149.878906 56.441406 147.730469 C 57.089844 145.585938 57.792969 143.457031 58.546875 141.347656 C 59.304688 139.238281 60.109375 137.148438 60.96875 135.074219 C 61.828125 133.003906 62.734375 130.957031 63.691406 128.929688 C 64.652344 126.902344 65.660156 124.902344 66.714844 122.925781 C 67.773438 120.949219 68.875 118.996094 70.03125 117.074219 C 71.183594 115.152344 72.378906 113.257812 73.625 111.394531 C 74.871094 109.53125 76.160156 107.699219 77.496094 105.898438 C 78.832031 104.097656 80.210938 102.332031 81.632812 100.597656 C 83.054688 98.863281 84.519531 97.167969 86.023438 95.507812 C 87.53125 93.847656 89.074219 92.222656 90.660156 90.636719 C 92.246094 89.054688 93.867188 87.507812 95.53125 86.003906 C 97.191406 84.496094 98.886719 83.035156 100.621094 81.609375 C 102.351562 80.1875 104.121094 78.808594 105.921875 77.476562 C 107.722656 76.140625 109.554688 74.847656 111.417969 73.605469 C 113.28125 72.359375 115.175781 71.160156 117.097656 70.007812 C 119.019531 68.855469 120.96875 67.75 122.945312 66.691406 C 124.921875 65.636719 126.925781 64.628906 128.953125 63.671875 C 130.976562 62.710938 133.027344 61.804688 135.097656 60.945312 C 137.167969 60.089844 139.261719 59.28125 141.371094 58.527344 C 143.480469 57.769531 145.609375 57.066406 147.753906 56.417969 C 149.898438 55.765625 152.058594 55.167969 154.234375 54.625 C 156.410156 54.078125 158.59375 53.589844 160.792969 53.152344 C 162.992188 52.714844 165.199219 52.332031 167.417969 52.003906 C 169.636719 51.671875 171.859375 51.398438 174.089844 51.179688 C 176.320312 50.960938 178.554688 50.792969 180.792969 50.683594 C 183.035156 50.574219 185.273438 50.519531 187.515625 50.519531 C 189.757812 50.519531 191.996094 50.574219 194.238281 50.683594 C 196.476562 50.792969 198.710938 50.960938 200.941406 51.179688 C 203.171875 51.398438 205.398438 51.671875 207.613281 52.003906 C 209.832031 52.332031 212.039062 52.714844 214.238281 53.152344 C 216.4375 53.589844 218.625 54.078125 220.796875 54.625 C 222.972656 55.167969 225.132812 55.765625 227.277344 56.417969 C 229.421875 57.066406 231.550781 57.769531 233.660156 58.527344 C 235.773438 59.28125 237.863281 60.089844 239.933594 60.945312 C 242.003906 61.804688 244.054688 62.710938 246.078125 63.671875 C 248.105469 64.628906 250.109375 65.636719 252.085938 66.691406 C 254.0625 67.75 256.011719 68.855469 257.933594 70.007812 C 259.855469 71.160156 261.75 72.359375 263.613281 73.605469 C 265.476562 74.847656 267.3125 76.140625 269.109375 77.476562 C 270.910156 78.808594 272.679688 80.1875 274.410156 81.609375 C 276.144531 83.035156 277.839844 84.496094 279.5 86.003906 C 281.164062 87.507812 282.785156 89.054688 284.371094 90.636719 C 285.957031 92.222656 287.5 93.847656 289.007812 95.507812 C 290.511719 97.167969 291.976562 98.863281 293.398438 100.597656 C 294.820312 102.332031 296.199219 104.097656 297.535156 105.898438 C 298.871094 107.699219 300.160156 109.53125 301.40625 111.394531 C 302.652344 113.257812 303.851562 115.152344 305.003906 117.074219 C 306.15625 118.996094 307.257812 120.949219 308.316406 122.925781 C 309.371094 124.902344 310.378906 126.902344 311.339844 128.929688 C 312.296875 130.957031 313.207031 133.003906 314.0625 135.074219 C 314.921875 137.148438 315.726562 139.238281 316.484375 141.347656 C 317.238281 143.457031 317.941406 145.585938 318.589844 147.730469 C 319.242188 149.878906 319.839844 152.035156 320.386719 154.210938 C 320.929688 156.386719 321.421875 158.574219 321.859375 160.769531 C 322.296875 162.96875 322.679688 165.179688 323.007812 167.394531 C 323.335938 169.613281 323.609375 171.835938 323.832031 174.066406 C 324.050781 176.296875 324.214844 178.535156 324.324219 180.773438 C 324.433594 183.011719 324.488281 185.25 324.488281 187.492188 Z M 324.488281 187.492188 " fill-opacity="1" fill-rule="nonzero"/><g clip-path="url(#e74d3cabed)"><path fill="#334d2b" d="M 187.515625 327.753906 C 150.050781 327.753906 114.828125 313.167969 88.335938 286.675781 C 61.839844 260.183594 47.253906 224.960938 47.253906 187.492188 C 47.253906 150.027344 61.839844 114.804688 88.335938 88.3125 C 114.828125 61.820312 150.050781 47.230469 187.515625 47.230469 C 224.984375 47.230469 260.207031 61.820312 286.699219 88.3125 C 313.191406 114.804688 327.777344 150.027344 327.777344 187.492188 C 327.777344 224.960938 313.191406 260.183594 286.699219 286.675781 C 260.207031 313.167969 224.984375 327.753906 187.515625 327.753906 Z M 187.515625 53.808594 C 151.804688 53.808594 118.230469 67.714844 92.984375 92.960938 C 67.730469 118.214844 53.828125 151.78125 53.828125 187.492188 C 53.828125 223.203125 67.738281 256.773438 92.984375 282.023438 C 118.238281 307.269531 151.804688 321.179688 187.515625 321.179688 C 223.226562 321.179688 256.792969 307.269531 282.046875 282.023438 C 307.292969 256.773438 321.203125 223.203125 321.203125 187.492188 C 321.203125 151.78125 307.292969 118.214844 282.046875 92.960938 C 256.792969 67.714844 223.226562 53.808594 187.515625 53.808594 Z M 187.515625 270.128906 C 141.953125 270.128906 104.878906 233.0625 104.878906 187.492188 C 104.878906 141.929688 141.949219 104.855469 187.515625 104.855469 C 233.078125 104.855469 270.152344 141.925781 270.152344 187.492188 C 270.152344 233.0625 233.078125 270.128906 187.515625 270.128906 Z M 187.515625 111.4375 C 145.578125 111.4375 111.453125 145.5625 111.453125 187.5 C 111.453125 229.4375 145.578125 263.558594 187.515625 263.558594 C 229.453125 263.558594 263.578125 229.4375 263.578125 187.492188 C 263.578125 145.554688 229.453125 111.4375 187.515625 111.4375 Z M 304.21875 187.492188 C 304.21875 171.335938 300.960938 155.683594 294.523438 140.964844 L 279.464844 147.546875 C 284.988281 160.175781 287.785156 173.613281 287.785156 187.492188 C 287.785156 201.367188 284.988281 214.8125 279.464844 227.441406 L 294.523438 234.019531 C 300.953125 219.304688 304.21875 203.652344 304.21875 187.492188 Z M 95.570312 227.441406 C 90.050781 214.8125 87.25 201.375 87.25 187.492188 C 87.25 173.617188 90.050781 160.175781 95.570312 147.546875 L 80.507812 140.964844 C 74.070312 155.683594 70.8125 171.339844 70.8125 187.492188 C 70.8125 203.652344 74.070312 219.304688 80.507812 234.019531 Z M 95.570312 227.441406 " fill-opacity="1" fill-rule="nonzero"/></g><g clip-path="url(#9825b0bb6d)"><path fill="#334d2b" d="M 231.464844 207.722656 C 232.121094 209.027344 233.121094 211.636719 234.328125 212.359375 C 235.777344 213.21875 238.328125 212.222656 240.398438 212.050781 C 242.226562 211.878906 244.882812 213.5625 245.917969 211.261719 C 246.195312 210.640625 246.226562 209.953125 246.261719 209.300781 C 243.398438 209.679688 239.332031 210.777344 236.675781 210.367188 C 234.398438 209.851562 233.121094 208.890625 231.464844 207.722656 M 228.707031 214.488281 C 229.464844 216.484375 232.46875 217.03125 234.5 217.238281 C 234.226562 216.277344 233.777344 215.003906 232.8125 214.523438 C 231.914062 214.078125 229.671875 214.214844 228.707031 214.488281 Z M 146.898438 217.238281 C 148.933594 217 151.933594 216.484375 152.691406 214.488281 C 151.726562 214.214844 149.484375 214.078125 148.554688 214.558594 C 147.625 215.003906 147.210938 216.277344 146.898438 217.238281 Z M 228.15625 221.054688 L 230.226562 223.628906 C 233.949219 221.84375 230.984375 220.847656 230.328125 220.882812 C 229.570312 220.882812 228.84375 220.949219 228.15625 221.054688 Z M 208.152344 214.421875 C 210.460938 217.683594 207.53125 221.464844 205.394531 223.871094 C 207.253906 224.59375 208.359375 224.488281 209.808594 222.875 C 211.738281 220.640625 212.1875 215.828125 216.601562 216.859375 C 218.601562 217.34375 219.773438 218.441406 222.328125 217.136719 L 225.914062 214.628906 C 225.191406 211.535156 224.671875 210.230469 221.292969 211.605469 C 217.394531 213.183594 212.464844 215.660156 208.152344 214.421875 Z M 196.941406 213.21875 C 197.527344 216.484375 200.289062 219.402344 202.496094 221.738281 C 207.460938 215.144531 200.632812 216.65625 196.941406 213.21875 Z M 151.210938 223.628906 L 153.28125 221.054688 C 152.589844 220.949219 151.867188 220.882812 151.105469 220.882812 C 150.453125 220.847656 147.484375 221.84375 151.210938 223.628906 Z M 147.070312 212.359375 C 148.3125 211.636719 149.277344 208.992188 149.933594 207.722656 C 148.3125 208.921875 147.003906 209.886719 144.726562 210.332031 C 142.035156 210.746094 137.964844 209.644531 135.136719 209.265625 C 135.171875 209.953125 135.207031 210.605469 135.484375 211.226562 C 136.519531 213.5625 139.171875 211.84375 141 212.015625 C 143.070312 212.222656 145.621094 213.183594 147.070312 212.359375 Z M 176.042969 223.871094 C 173.902344 221.429688 170.972656 217.683594 173.285156 214.421875 C 168.972656 215.660156 164.039062 213.183594 160.144531 211.636719 C 156.761719 210.261719 156.246094 211.535156 155.519531 214.660156 L 159.109375 217.171875 C 161.660156 218.511719 162.832031 217.375 164.832031 216.894531 C 169.246094 215.863281 169.660156 220.675781 171.628906 222.910156 C 173.078125 224.488281 174.214844 224.59375 176.042969 223.871094 Z M 190.425781 120.03125 C 192.492188 124.222656 194.460938 128.039062 195.496094 132.609375 C 196.011719 135.527344 196.21875 138.140625 196.390625 140.785156 C 197.667969 139.203125 199.046875 138.378906 200.910156 137.347656 C 203.046875 136.25 204.875 135.390625 206.839844 133.980469 C 209.394531 132.09375 210.738281 130.304688 212.117188 127.417969 C 210.945312 130.441406 209.703125 132.367188 207.289062 134.53125 C 205.394531 136.148438 203.597656 137.144531 201.53125 138.449219 C 199.769531 139.582031 198.460938 140.511719 197.425781 142.332031 C 196.496094 144.152344 196.632812 144.804688 196.804688 146.730469 C 197.496094 152.125 201.046875 154.632812 202.875 160.679688 C 203.046875 161.367188 203.183594 162.054688 203.324219 162.707031 C 206.289062 161.710938 209.84375 161.058594 213.84375 159.445312 C 215.738281 158.652344 217.394531 157.761719 218.914062 156.695312 C 221.671875 154.21875 221.328125 151.023438 220.773438 147.96875 C 220.328125 145.597656 219.742188 143.328125 219.429688 140.921875 C 219.292969 139.789062 219.257812 138.828125 219.464844 137.691406 C 219.671875 136.628906 219.949219 135.90625 220.636719 135.046875 C 220.1875 135.976562 220.050781 136.695312 220.085938 137.726562 C 220.152344 138.792969 220.394531 139.652344 220.707031 140.648438 C 221.5 142.882812 222.570312 144.976562 223.464844 147.175781 C 223.984375 148.515625 224.429688 149.71875 224.671875 150.992188 C 226.050781 149.066406 226.984375 147.347656 227.777344 145.046875 C 228.535156 142.640625 228.777344 140.714844 228.535156 138.175781 C 228.191406 135.320312 228.15625 133.742188 227.050781 130.992188 C 228.535156 133.605469 228.914062 135.148438 229.640625 137.96875 C 230.328125 140.683594 230.363281 142.8125 229.984375 145.5625 C 229.5 148.34375 228.707031 150.476562 227.429688 152.984375 C 226.398438 154.839844 225.292969 156.488281 224.085938 157.964844 C 225.363281 158 226.636719 158.070312 228.019531 158.171875 C 230.398438 158.308594 232.8125 158.515625 235.191406 158.207031 C 236.191406 158 236.949219 157.792969 237.847656 157.246094 C 238.777344 156.625 239.261719 155.972656 239.777344 154.976562 C 239.433594 156.109375 239.054688 156.832031 238.226562 157.691406 C 237.363281 158.480469 236.605469 158.894531 235.5 159.304688 C 233.085938 160.164062 230.640625 160.40625 228.085938 160.679688 C 226.121094 160.921875 224.328125 161.128906 222.5 161.539062 C 219.015625 162.328125 219.464844 162.640625 216.429688 164.527344 C 214.601562 165.492188 211.636719 166.625 209.222656 167.585938 C 204.289062 169.546875 203.597656 170.851562 203.980469 174.289062 C 209.152344 172.671875 215.085938 175.316406 220.121094 176.246094 C 221.949219 176.519531 223.1875 176.417969 224.984375 175.867188 C 227.671875 175.007812 229.707031 173.601562 231.878906 171.882812 C 234.433594 169.785156 236.984375 167.484375 240.226562 166.523438 C 241.777344 166.144531 242.917969 166.144531 244.503906 166.316406 C 246.503906 166.625 248.402344 167.175781 250.332031 167.792969 C 248.332031 167.382812 246.46875 167.070312 244.433594 167.070312 C 243.019531 167.070312 241.953125 167.175781 240.640625 167.722656 C 238.019531 168.960938 235.605469 171.675781 233.535156 173.703125 C 231.226562 175.9375 229.15625 177.6875 226.292969 179.132812 C 224.015625 180.128906 222.292969 180.472656 219.808594 180.4375 C 218.292969 180.371094 216.84375 180.199219 215.394531 179.992188 L 215.429688 180.027344 C 215.878906 181.023438 216.257812 181.847656 216.914062 182.742188 C 217.671875 183.769531 218.359375 184.355469 219.464844 185.007812 C 221.085938 185.9375 222.601562 186.246094 224.429688 186.453125 C 227.429688 186.792969 230.085938 186.554688 233.085938 186.109375 C 235.5 185.832031 238.15625 185.042969 240.710938 184.699219 C 242.296875 184.527344 243.710938 184.425781 245.296875 184.597656 C 245.988281 184.699219 246.574219 184.800781 247.226562 185.078125 C 247.640625 185.179688 248.367188 185.695312 248.675781 186.039062 C 248.195312 185.660156 247.746094 185.453125 247.160156 185.28125 C 246.503906 185.109375 245.953125 185.078125 245.261719 185.042969 C 243.710938 185.042969 242.367188 185.28125 240.882812 185.660156 C 238.226562 186.3125 236.019531 187.136719 233.46875 187.964844 C 230.328125 188.753906 227.535156 189.304688 224.292969 189.40625 C 221.949219 189.371094 220.121094 189.132812 217.914062 188.308594 C 216.1875 187.550781 215.085938 186.761719 213.773438 185.421875 C 212.808594 184.355469 212.152344 183.394531 211.429688 182.15625 C 210.773438 181.089844 210.015625 180.058594 208.808594 179.542969 C 208.496094 179.40625 208.1875 179.339844 207.910156 179.304688 C 207.738281 179.304688 207.566406 179.304688 207.359375 179.304688 C 207.1875 179.339844 206.980469 179.371094 206.773438 179.40625 C 205.839844 179.683594 205.152344 180.164062 204.425781 180.78125 C 203.53125 181.605469 202.875 182.398438 202.253906 183.425781 C 201.390625 185.007812 201.082031 187.308594 201.183594 189.785156 C 201.324219 194.078125 202.632812 198.890625 204.21875 201.328125 C 205.1875 202.839844 206.738281 204.042969 206.773438 204.042969 C 207.253906 204.351562 207.773438 204.492188 208.324219 204.628906 C 212.910156 205.351562 219.566406 202.050781 225.050781 201.433594 C 231.707031 200.8125 233.777344 206.691406 237.398438 207.789062 C 239.777344 208.511719 243.847656 207.824219 246.609375 207.894531 C 246.917969 206.484375 248.125 205.316406 249.609375 205.179688 C 251.46875 205.144531 252.609375 206.621094 255.4375 206.519531 C 252.125 206.792969 250.539062 204.457031 248.332031 206.035156 L 247.125 207.894531 C 250.644531 208.03125 253.195312 208.71875 256.539062 210.640625 C 253.058594 209.128906 250.46875 208.75 247.019531 209.128906 C 246.988281 210.46875 246.953125 212.1875 245.46875 212.945312 C 244.019531 213.699219 242.332031 212.910156 240.640625 213.011719 C 237.8125 213.21875 234.398438 215.863281 231.640625 211.292969 C 230.984375 210.160156 230.5 209.265625 229.984375 208.40625 C 226.636719 202.773438 219.328125 208.132812 215.1875 209.679688 C 217.464844 209.09375 220.949219 207.6875 222.949219 207.582031 C 225.363281 207.480469 227.015625 208.71875 227.914062 210.882812 C 228.292969 211.777344 228.398438 212.601562 228.535156 213.320312 C 229.742188 213.046875 232.226562 213.046875 233.328125 213.664062 C 234.535156 214.351562 235.019531 215.898438 235.296875 217.203125 C 239.433594 217.582031 246.261719 216.792969 249.089844 217.890625 C 249.988281 218.234375 251.054688 218.957031 250.78125 220.054688 C 250.296875 222.015625 246.226562 222.324219 248.953125 226.378906 C 248.261719 225.484375 247.609375 224.386719 247.882812 223.21875 C 248.332031 221.363281 251.089844 220.46875 249.882812 219.230469 C 248.296875 217.546875 238.398438 219.230469 235.605469 219.199219 C 236.089844 223.21875 236.363281 225.863281 241.226562 226.105469 C 239.917969 226.105469 238.847656 225.964844 237.710938 225.3125 C 235.777344 224.109375 235.570312 221.980469 235.054688 219.199219 C 232.15625 219.128906 227.949219 218.714844 226.429688 215.761719 C 225.292969 216.65625 224.363281 217.546875 223.121094 218.339844 C 218.738281 220.914062 216.1875 217.273438 214.566406 218.992188 C 213.671875 219.953125 213.152344 222.222656 211.875 224.042969 C 216.085938 223.285156 219.050781 221.808594 222.84375 220.226562 C 225.601562 219.09375 231.085938 217.546875 233.328125 220.367188 C 234.121094 221.363281 233.914062 222.1875 233.433594 223.148438 C 233.019531 223.9375 231.671875 224.59375 230.949219 224.902344 C 232.019531 227.304688 232.121094 228.132812 234.15625 230.261719 C 234.570312 230.707031 235.191406 230.777344 235.777344 230.777344 C 239.570312 230.847656 242.8125 229.4375 246.402344 231.84375 C 241.332031 229.195312 235.914062 233.730469 233.085938 231.429688 C 230.878906 229.644531 230.121094 228.199219 228.8125 225.898438 C 226.8125 227.273438 226.257812 231.050781 227.085938 232.976562 C 228.636719 236.585938 234.191406 237.132812 235.398438 241.324219 C 233.261719 235.757812 223.84375 237.167969 226.121094 227.960938 C 226.429688 226.652344 227.050781 225.589844 228.121094 224.796875 C 226.636719 222.804688 225.671875 222.839844 223.5 223.835938 C 222.222656 224.453125 220.949219 225.175781 219.707031 225.828125 C 221.1875 227.71875 220.394531 229.710938 218.914062 231.328125 L 217.945312 232.667969 L 218.5 233.113281 C 219.429688 233.765625 221.566406 233.628906 222.328125 234.28125 C 223.777344 235.519531 222.015625 238.269531 223.222656 238.851562 C 225.328125 239.882812 227.84375 239.125 228.8125 240.914062 C 229.742188 242.804688 228.464844 244.832031 231.398438 245.65625 C 228.535156 245.484375 229.398438 242.699219 228.398438 241.1875 C 227.570312 239.953125 225.777344 240.46875 224.015625 240.089844 L 223.050781 243.007812 C 223.085938 243.800781 224.464844 244.453125 225.085938 245.035156 C 226.15625 246.035156 225.398438 248.09375 226.363281 248.4375 C 225.363281 248.128906 225.984375 246.445312 224.878906 245.242188 C 224.429688 244.761719 222.636719 244.210938 222.5 243.042969 L 223.050781 240.777344 C 223.363281 239.746094 222.015625 239.78125 221.742188 238.300781 C 221.429688 236.722656 222.1875 235.277344 221.1875 235.210938 C 219.742188 235.105469 216.808594 234.796875 216.292969 233.113281 C 215.910156 231.875 216.878906 230.847656 217.464844 230.054688 C 218.914062 228.027344 217.980469 226.757812 215.980469 227.582031 C 211.601562 229.402344 206.566406 230.570312 201.945312 228.648438 C 201.253906 231.328125 209.496094 232.941406 211.222656 233.421875 C 219.535156 235.757812 213.636719 243.179688 219.1875 248.300781 C 220.1875 249.230469 221.15625 249.777344 222.363281 250.363281 C 212.429688 246.515625 217.222656 238.78125 213.050781 236.070312 C 211.910156 235.347656 210.1875 235.105469 208.808594 234.867188 C 209.53125 236.925781 207.667969 238.472656 207.460938 239.230469 C 207.289062 239.8125 207.566406 240.398438 207.980469 240.808594 C 209.253906 242.183594 211.1875 241.667969 211.53125 243.078125 C 210.84375 241.808594 209.117188 242.355469 207.703125 241.085938 C 205.632812 239.160156 208.117188 237.992188 208.152344 236.070312 C 208.152344 234.523438 206.738281 234.488281 205.496094 234.179688 C 202.359375 233.421875 198.460938 232.117188 198.875 228.269531 C 198.941406 227.820312 199.011719 227.410156 199.148438 226.996094 L 197.21875 225.3125 C 197.425781 227.820312 197.253906 229.816406 197.496094 232.253906 C 197.804688 234.351562 199.117188 236.378906 199.5625 238.40625 C 200.425781 241.773438 202.976562 242.871094 206.253906 243.867188 C 208.566406 244.554688 210.773438 244.933594 212.429688 246.617188 C 215.945312 250.15625 212.566406 252.492188 213.671875 254.796875 C 212.222656 252.425781 215.152344 250.226562 211.667969 247.441406 C 210.117188 246.207031 207.945312 246.238281 205.773438 245.792969 C 202.597656 245.175781 199.324219 244.28125 197.425781 241.566406 L 197.148438 243.972656 C 196.976562 246.546875 194.113281 248.953125 197.703125 249.46875 C 199.875 249.777344 204.359375 249.640625 206.1875 251.910156 C 207.460938 253.488281 205.253906 254.65625 204.597656 255.894531 C 204.289062 256.480469 204.359375 257.027344 204.804688 257.578125 C 203.183594 255.6875 206.324219 254.28125 206.152344 252.90625 C 206.082031 252.253906 205.289062 251.804688 204.703125 251.53125 C 203.425781 250.945312 202.253906 250.773438 201.046875 250.742188 C 201.324219 251.496094 201.152344 252.285156 200.910156 253.007812 C 200.460938 254.347656 199.148438 254.96875 198.839844 256 C 198.734375 256.375 198.769531 257.441406 199.355469 257.476562 C 198.769531 257.511719 198.148438 256.238281 199.082031 254.863281 C 199.875 253.660156 200.5625 253.007812 200.289062 251.359375 C 200.183594 250.84375 199.5625 250.945312 199.21875 250.773438 C 198.460938 250.429688 195.082031 251.289062 194.527344 248.644531 C 193.355469 250.429688 192.839844 251.875 192.769531 253.9375 C 192.769531 254.625 192.90625 255.035156 193.21875 255.65625 C 193.769531 256.617188 193.320312 256.03125 194.183594 256.925781 L 194.875 258.230469 L 194.082031 257.027344 C 193.253906 256.273438 193.527344 256.71875 192.941406 255.828125 C 192.148438 254.589844 192.21875 253.558594 192.355469 252.082031 C 192.667969 249.503906 193.90625 247.921875 194.804688 246.273438 C 195.976562 244.109375 196.253906 240.054688 195.21875 237.890625 C 194.769531 236.996094 194.113281 236.101562 193.183594 233.285156 C 192.425781 230.570312 192.320312 227.789062 191.597656 224.9375 C 191.355469 224.042969 191.078125 223.011719 190.734375 221.980469 C 190.390625 223.011719 190.113281 224.042969 189.871094 224.9375 C 189.148438 227.789062 189.042969 230.570312 188.285156 233.285156 C 187.355469 236.101562 186.664062 236.960938 186.25 237.890625 C 185.214844 240.054688 185.492188 244.109375 186.664062 246.273438 C 187.5625 247.921875 188.769531 249.503906 189.113281 252.082031 C 189.25 253.558594 189.285156 254.589844 188.527344 255.828125 C 187.628906 257.234375 187.597656 256.445312 187.042969 257.648438 L 186.628906 258.230469 L 187.320312 256.925781 C 188.21875 256.066406 187.769531 256.652344 188.285156 255.65625 C 188.941406 254.417969 188.699219 253.421875 188.527344 252.117188 C 188.355469 250.914062 187.734375 249.777344 187.011719 248.679688 C 186.457031 251.324219 183.078125 250.464844 182.320312 250.808594 C 181.835938 251.015625 180.800781 250.636719 181.285156 252.835938 C 181.5625 254.074219 182.769531 254.863281 182.90625 255.964844 C 182.941406 256.339844 182.800781 257.511719 182.148438 257.511719 C 182.664062 257.476562 183.148438 256.308594 182.148438 255.105469 C 181.492188 254.382812 180.972656 253.972656 180.628906 253.007812 C 180.386719 252.285156 180.214844 251.460938 180.492188 250.742188 C 179.285156 250.808594 178.144531 250.980469 176.835938 251.53125 C 172.765625 253.59375 178.90625 255.105469 176.765625 257.613281 C 178.492188 255.378906 173.59375 254.140625 175.386719 251.976562 C 177.558594 249.296875 183.355469 250.019531 185.007812 249.261719 C 186.664062 248.472656 184.527344 246 184.421875 244.074219 L 184.148438 241.667969 C 182.25 244.351562 178.972656 245.277344 175.800781 245.894531 C 173.628906 246.308594 171.457031 246.308594 169.902344 247.546875 C 166.417969 250.328125 169.316406 252.527344 167.902344 254.898438 C 169.007812 252.597656 165.625 250.257812 169.144531 246.71875 C 172.695312 243.148438 180.386719 244.832031 182.007812 238.507812 C 182.492188 236.480469 183.800781 234.453125 184.078125 232.359375 C 184.320312 229.917969 184.148438 227.890625 184.355469 225.417969 L 182.421875 227.101562 C 183.078125 229.160156 182.664062 231.1875 180.800781 232.460938 C 179.421875 233.320312 177.765625 233.871094 176.078125 234.28125 C 174.871094 234.589844 173.421875 234.660156 173.421875 236.171875 C 173.457031 238.097656 175.9375 239.265625 173.871094 241.1875 C 172.457031 242.460938 170.730469 241.945312 170.042969 243.179688 C 170.386719 241.773438 172.316406 242.253906 173.59375 240.914062 C 175.25 239.125 172.871094 238.542969 172.59375 236.242188 C 172.558594 235.757812 172.59375 235.347656 172.730469 234.96875 C 170.660156 235.347656 168.351562 235.519531 167.28125 237.476562 C 165.246094 241.121094 167.800781 247.132812 159.175781 250.464844 C 161.175781 249.503906 163.074219 248.164062 164.109375 246.136719 C 166.523438 241.394531 163.179688 235.519531 170.316406 233.492188 C 172.042969 233.011719 180.285156 231.429688 179.59375 228.714844 C 174.972656 230.640625 169.9375 229.503906 165.558594 227.648438 C 163.589844 226.824219 162.625 228.097656 164.074219 230.125 C 164.660156 230.914062 165.625 231.945312 165.246094 233.183594 C 164.59375 235.347656 160.316406 235.140625 160.039062 235.382812 C 159.453125 235.863281 160.316406 238.027344 159.453125 239.195312 C 158.902344 239.953125 158.246094 240.054688 158.488281 240.84375 C 159.003906 242.597656 159.660156 243.285156 158.074219 244.417969 C 156.382812 245.65625 156.453125 244.933594 155.96875 247.0625 C 155.867188 247.546875 155.832031 248.300781 155.210938 248.472656 C 156.175781 248.128906 155.453125 246.066406 156.488281 245.070312 C 157.832031 243.765625 158.9375 243.867188 158.316406 242.21875 L 157.554688 240.089844 C 155.796875 240.46875 153.96875 239.953125 153.175781 241.1875 C 152.175781 242.734375 153.039062 245.484375 150.175781 245.65625 C 153.625 244.691406 151.3125 241.703125 153.417969 240.191406 C 154.660156 239.296875 158.109375 239.574219 158.660156 238.578125 C 159.246094 237.546875 157.488281 234.28125 160.246094 233.871094 C 161.175781 233.730469 162.210938 233.527344 163.074219 233.113281 C 163.660156 232.703125 164.074219 232.871094 162.660156 231.292969 C 161.175781 229.675781 160.382812 227.683594 161.867188 225.792969 C 160.625 225.140625 156.554688 222.667969 155.28125 223.183594 L 153.453125 224.765625 C 155.867188 226.585938 156.347656 230.949219 155.140625 233.25 C 153.140625 237.097656 147.796875 236.996094 146.140625 241.292969 C 147.726562 235.691406 156.933594 236.617188 154.382812 228.199219 C 154.074219 227.203125 153.589844 226.414062 152.761719 225.863281 C 151.453125 228.164062 150.660156 229.609375 148.484375 231.394531 C 145.65625 233.699219 140.277344 229.160156 135.171875 231.808594 C 139.378906 228.992188 144.3125 231.429688 146.796875 230.605469 C 147.035156 230.503906 147.210938 230.433594 147.417969 230.226562 C 149.449219 228.132812 149.554688 227.273438 150.625 224.867188 C 149.140625 224.28125 147.242188 223.046875 147.832031 221.15625 C 148.105469 220.332031 148.832031 219.679688 149.589844 219.300781 C 152.210938 218.0625 156.210938 219.199219 158.730469 220.226562 C 162.558594 221.773438 165.488281 223.253906 169.695312 224.042969 C 167.558594 221.019531 167.9375 218.132812 165.246094 218.578125 C 163.28125 218.886719 161.589844 220.195312 158.417969 218.339844 C 157.175781 217.582031 156.246094 216.6875 155.105469 215.761719 C 153.589844 218.714844 149.347656 219.128906 146.484375 219.199219 C 145.96875 221.980469 145.761719 224.109375 143.828125 225.3125 C 142.691406 225.964844 141.585938 226.105469 140.3125 226.105469 C 145.175781 225.863281 145.449219 223.21875 145.933594 219.199219 C 143.140625 219.230469 133.242188 217.546875 131.65625 219.230469 C 129.929688 221.019531 136.171875 221.808594 132.621094 226.378906 C 133.515625 225.039062 134.035156 223.628906 132.828125 222.324219 C 132.207031 221.636719 129.757812 220.261719 131.171875 218.714844 C 131.863281 217.996094 133.136719 217.617188 134.101562 217.480469 C 137.621094 217.03125 142.414062 217.582031 146.242188 217.203125 C 147.003906 213.527344 148.449219 213.046875 151.898438 213.148438 C 152.3125 213.183594 152.660156 213.21875 153.003906 213.289062 C 153.347656 211.464844 153.832031 209.335938 155.832031 208.167969 C 157.589844 207.171875 159.589844 207.550781 161.417969 208.132812 C 163.144531 208.683594 164.695312 209.234375 166.351562 209.644531 C 162.210938 208.097656 154.902344 202.738281 151.554688 208.375 C 149.277344 212.1875 148.796875 214.59375 144.070312 213.664062 C 143.105469 213.492188 141.863281 213.011719 140.898438 212.945312 C 138.933594 212.804688 135.929688 214.25 134.828125 211.363281 C 134.550781 210.574219 134.550781 209.886719 134.550781 209.0625 C 131.101562 208.683594 128.515625 209.027344 125.03125 210.574219 C 128.378906 208.648438 130.964844 207.960938 134.449219 207.824219 C 134.207031 206.585938 133.207031 205.625 131.929688 205.417969 C 130.308594 205.246094 128.894531 206.691406 126.171875 206.449219 C 129.621094 206.585938 131 204.042969 133.484375 205.625 C 134.277344 206.140625 134.792969 206.929688 135 207.789062 C 137.757812 207.722656 141.828125 208.40625 144.207031 207.6875 C 147.832031 206.585938 149.898438 200.675781 156.554688 201.328125 C 165.730469 202.394531 174.285156 208.648438 178.941406 199.507812 C 180.664062 196.140625 181.972656 191.332031 180.628906 187.722656 C 179.492188 184.628906 176.59375 182.226562 171.316406 181.949219 C 163.523438 181.949219 158.453125 185.796875 150.382812 187.242188 C 143.65625 187.996094 140 186.589844 133.828125 184.457031 C 131.550781 183.703125 129.652344 183.117188 127.238281 182.945312 C 124.585938 182.84375 122.824219 183.324219 120.515625 184.597656 C 122.722656 183.015625 124.515625 182.292969 127.238281 182.054688 C 129.792969 181.914062 131.828125 182.292969 134.277344 182.808594 C 140.070312 183.976562 143.691406 184.9375 149.65625 183.632812 C 156.453125 181.675781 159.660156 178.617188 165.316406 176.796875 C 161.589844 176.109375 158.382812 175.457031 154.867188 174.011719 C 152.347656 172.914062 150.453125 171.746094 148.863281 170.027344 C 148.175781 169.785156 147.449219 169.546875 146.621094 169.304688 C 143.449219 168.445312 140.65625 168.207031 137.414062 167.894531 C 134.828125 167.691406 132.101562 167.585938 129.722656 166.453125 C 128.722656 165.9375 128.066406 165.421875 127.515625 164.425781 C 127 163.257812 126.964844 162.261719 127.101562 161.023438 C 127.136719 162.191406 127.308594 163.1875 128 164.117188 C 128.585938 164.871094 129.207031 165.183594 130.101562 165.492188 C 132.378906 166.007812 135.105469 165.730469 137.414062 165.558594 C 137.863281 165.523438 138.34375 165.492188 138.757812 165.457031 C 141.140625 165.25 143.3125 165.148438 145.691406 165.285156 C 144.863281 163.359375 144.484375 161.574219 144.382812 159.238281 C 144.277344 156.867188 144.519531 154.804688 144.726562 152.433594 C 144.898438 150.441406 145.035156 148.6875 144.691406 146.695312 C 144.484375 145.769531 144.242188 145.082031 143.726562 144.289062 C 143.140625 143.363281 142.554688 142.8125 141.65625 142.160156 C 142.621094 142.710938 143.3125 143.226562 144.070312 144.050781 C 144.726562 144.839844 145.105469 145.527344 145.449219 146.488281 C 146.140625 148.515625 146.242188 150.335938 146.3125 152.46875 C 146.417969 154.703125 146.449219 156.730469 146.863281 158.960938 C 147.347656 161.367188 148.003906 163.015625 149.417969 165.011719 C 151.417969 167.550781 153.382812 168.617188 156.488281 169.511719 C 159.761719 170.335938 162.867188 170.472656 166.214844 170.679688 C 169.421875 170.851562 172.972656 171.230469 176.214844 172.292969 C 184.628906 175.042969 189.839844 181.882812 189.148438 190.503906 C 190.046875 183.082031 188.871094 179.441406 183.664062 174.492188 C 182.421875 171.8125 180.558594 169.476562 178.664062 167.242188 C 175.078125 163.15625 172.144531 161.023438 168.144531 157.621094 C 164.039062 154.082031 162.210938 151.539062 160.96875 146.214844 C 160.417969 142.640625 161.144531 139.375 161.558594 135.804688 C 161.730469 134.085938 161.832031 132.609375 161.625 130.890625 C 161.351562 129.171875 160.9375 128.003906 159.796875 126.664062 C 161.144531 127.867188 161.796875 129.035156 162.351562 130.75 C 162.867188 132.503906 163.003906 134.050781 163.109375 135.90625 C 163.210938 138.964844 163.003906 142.539062 164.039062 145.425781 C 165.660156 149.652344 167.421875 151.195312 171.179688 153.5 C 172.421875 154.21875 173.558594 154.839844 174.628906 155.421875 C 174.800781 153.191406 175.351562 151.164062 176.285156 148.792969 C 176.523438 148.242188 176.664062 147.65625 176.800781 147.074219 C 176.972656 146.144531 177.042969 145.183594 176.835938 144.085938 C 176.316406 142.261719 175.457031 141.199219 174.285156 139.753906 C 172.871094 138.003906 171.871094 136.800781 171.144531 134.632812 C 170.800781 133.363281 170.695312 132.367188 170.765625 131.0625 C 170.9375 129.410156 171.28125 128.039062 171.800781 126.457031 C 171.558594 128.070312 171.488281 129.410156 171.730469 131.027344 C 171.902344 132.160156 172.109375 133.019531 172.695312 134.015625 C 173.664062 135.699219 174.800781 136.558594 176.285156 137.796875 C 177.871094 139.066406 178.9375 140.03125 179.941406 141.574219 C 181.386719 138.964844 182.800781 136.421875 183.699219 133.878906 C 183.976562 132.8125 183.976562 132.09375 183.628906 131.0625 C 183.214844 130.03125 182.628906 129.308594 181.972656 128.414062 C 181.214844 127.453125 180.558594 126.628906 180.042969 125.496094 C 179.492188 124.1875 179.351562 123.226562 179.59375 121.816406 C 179.59375 123.15625 179.871094 124.050781 180.628906 125.152344 C 181.320312 126.078125 182.078125 126.765625 182.941406 127.523438 C 183.90625 128.382812 184.628906 129.066406 185.355469 130.167969 C 186.183594 131.578125 186.390625 132.710938 186.25 134.324219 C 185.597656 139.652344 182.90625 144.910156 181.664062 150.371094 C 181.179688 152.984375 181.042969 155.078125 181.800781 157.65625 C 182.59375 159.785156 184.5625 162.191406 186.871094 164.597656 C 190.183594 167.792969 192.769531 170.78125 194.113281 175.285156 C 194.113281 169.476562 198.53125 168.480469 197.667969 161.882812 C 196.460938 155.628906 193.527344 153.945312 193.425781 146.867188 C 193.734375 141.851562 194.253906 137.96875 193.90625 132.847656 C 193.769531 129.171875 191.667969 123.535156 190.425781 120.03125 Z M 178.941406 221.707031 C 181.148438 219.371094 183.90625 216.449219 184.492188 213.183594 C 180.835938 216.65625 173.972656 215.144531 178.941406 221.707031 Z M 178.941406 221.707031 " fill-opacity="1" fill-rule="nonzero"/></g><path fill="#7da12d" d="M 171.835938 164.496094 C 171.835938 164.496094 165.074219 170.027344 160.558594 163.5 C 160.523438 163.5 167.488281 158.207031 171.835938 164.496094 " fill-opacity="1" fill-rule="evenodd"/><path fill="#7da12d" d="M 159.074219 148.449219 C 159.074219 148.449219 151.382812 148.621094 151.796875 141.679688 C 151.832031 141.679688 159.488281 141.78125 159.074219 148.449219 " fill-opacity="1" fill-rule="evenodd"/><path fill="#7da12d" d="M 159.347656 135.871094 C 159.347656 135.871094 152.625 136.285156 152.761719 130.203125 C 152.761719 130.167969 159.488281 129.996094 159.347656 135.871094 " fill-opacity="1" fill-rule="evenodd"/><path fill="#7da12d" d="M 176.042969 135.734375 C 176.042969 135.734375 174.144531 130.613281 178.941406 129.308594 C 178.941406 129.308594 180.628906 134.496094 176.042969 135.734375 " fill-opacity="1" fill-rule="evenodd"/><g clip-path="url(#5c0ca5fd35)"><path fill="#7da12d" d="M 177.59375 124.636719 C 177.59375 124.636719 172.144531 124.394531 172.765625 119.480469 C 172.765625 119.480469 178.25 119.929688 177.59375 124.636719 " fill-opacity="1" fill-rule="evenodd"/></g><path fill="#7da12d" d="M 164.972656 131.921875 C 164.972656 131.921875 162.796875 125.289062 169.007812 123.84375 C 169.007812 123.878906 170.9375 130.582031 164.972656 131.921875 " fill-opacity="1" fill-rule="evenodd"/><path fill="#7da12d" d="M 141.449219 152.226562 C 141.449219 152.226562 133.863281 150.957031 135.621094 144.222656 C 135.621094 144.222656 143.140625 145.769531 141.449219 152.226562 " fill-opacity="1" fill-rule="evenodd"/><path fill="#7da12d" d="M 145.691406 143.191406 C 145.691406 143.191406 142.863281 136.972656 148.726562 134.875 C 148.726562 134.875 151.347656 141.199219 145.691406 143.191406 " fill-opacity="1" fill-rule="evenodd"/><path fill="#7da12d" d="M 136.519531 163.429688 C 136.519531 163.429688 130.035156 161.984375 131.828125 156.214844 C 131.828125 156.214844 138.277344 157.898438 136.519531 163.429688 " fill-opacity="1" fill-rule="evenodd"/><path fill="#7da12d" d="M 173.800781 148.964844 C 173.800781 148.964844 165.316406 147.3125 167.453125 139.789062 C 167.453125 139.789062 175.90625 141.746094 173.800781 148.964844 " fill-opacity="1" fill-rule="evenodd"/><path fill="#7da12d" d="M 153.246094 163.085938 C 153.246094 163.085938 148.65625 156.933594 154.589844 153.292969 C 154.589844 153.292969 158.96875 159.582031 153.246094 163.085938 " fill-opacity="1" fill-rule="evenodd"/><path fill="#7da12d" d="M 143.863281 171.984375 C 143.863281 171.984375 139.3125 178.171875 134.070312 173.601562 C 134.070312 173.601562 138.828125 167.585938 143.863281 171.984375 " fill-opacity="1" fill-rule="evenodd"/><g clip-path="url(#42e7f1c18f)"><path fill="#7da12d" d="M 127.378906 167.242188 C 127.378906 167.242188 122.964844 172.226562 118.753906 167.863281 C 118.753906 167.863281 123.34375 163.015625 127.378906 167.242188 " fill-opacity="1" fill-rule="evenodd"/></g><path fill="#7da12d" d="M 151.625 181.503906 C 151.625 181.503906 144.484375 184.355469 142.449219 177.6875 C 142.449219 177.6875 149.65625 175.113281 151.625 181.503906 " fill-opacity="1" fill-rule="evenodd"/><path fill="#7da12d" d="M 130.308594 179.992188 C 130.308594 179.992188 122.929688 181.160156 122.410156 174.390625 C 122.445312 174.425781 129.859375 173.53125 130.308594 179.992188 " fill-opacity="1" fill-rule="evenodd"/><path fill="#7da12d" d="M 195.460938 164.355469 C 195.460938 164.355469 187.457031 163.566406 188.804688 156.386719 C 188.804688 156.417969 196.769531 157.484375 195.460938 164.355469 " fill-opacity="1" fill-rule="evenodd"/><path fill="#7da12d" d="M 186.285156 150.785156 C 186.285156 150.785156 184.285156 144.976562 189.699219 143.601562 C 189.734375 143.601562 191.527344 149.480469 186.285156 150.785156 " fill-opacity="1" fill-rule="evenodd"/><path fill="#7da12d" d="M 192.425781 139.101562 C 192.425781 139.101562 187.148438 137.691406 188.839844 133.019531 C 188.839844 133.019531 194.046875 134.636719 192.425781 139.101562 " fill-opacity="1" fill-rule="evenodd"/><path fill="#7da12d" d="M 165.902344 185.625 C 165.902344 185.625 166.558594 193.253906 159.589844 193.253906 C 159.554688 193.253906 159.175781 185.59375 165.902344 185.625 " fill-opacity="1" fill-rule="evenodd"/><path fill="#7da12d" d="M 141.378906 189.75 C 141.378906 189.75 139.140625 196.585938 133.101562 194.011719 C 133.101562 194.011719 135.621094 187.277344 141.378906 189.75 " fill-opacity="1" fill-rule="evenodd"/><g clip-path="url(#6dfe7b43cb)"><path fill="#7da12d" d="M 126.066406 186.417969 C 126.066406 186.417969 126.207031 194.699219 118.6875 194.183594 C 118.6875 194.183594 118.824219 185.902344 126.066406 186.417969 " fill-opacity="1" fill-rule="evenodd"/></g><path fill="#7da12d" d="M 198.355469 134.1875 C 198.355469 134.1875 196.496094 127.695312 202.53125 126.492188 C 202.53125 126.492188 204.1875 133.054688 198.355469 134.1875 " fill-opacity="1" fill-rule="evenodd"/><g clip-path="url(#9a7db53c62)"><path fill="#7da12d" d="M 194.667969 125.289062 C 194.667969 125.289062 193.667969 120.304688 198.289062 119.789062 C 198.289062 119.789062 199.117188 124.808594 194.667969 125.289062 " fill-opacity="1" fill-rule="evenodd"/></g><path fill="#7da12d" d="M 184.664062 127.523438 C 184.664062 127.523438 182.457031 122.746094 186.941406 121.097656 C 186.941406 121.097656 189.011719 125.976562 184.664062 127.523438 " fill-opacity="1" fill-rule="evenodd"/><path fill="#7da12d" d="M 208.117188 128.519531 C 208.117188 128.519531 204.773438 125.804688 207.53125 122.988281 C 207.496094 122.988281 210.738281 125.839844 208.117188 128.519531 " fill-opacity="1" fill-rule="evenodd"/><path fill="#7da12d" d="M 203.289062 156.074219 C 203.289062 156.074219 199.976562 147.382812 208.117188 145.082031 C 208.117188 145.082031 211.117188 153.878906 203.289062 156.074219 " fill-opacity="1" fill-rule="evenodd"/><path fill="#7da12d" d="M 202.183594 140.40625 C 202.183594 140.40625 206.460938 136.007812 210.117188 140.203125 C 210.117188 140.203125 205.703125 144.460938 202.183594 140.40625 " fill-opacity="1" fill-rule="evenodd"/><path fill="#7da12d" d="M 210.980469 133.054688 C 210.980469 133.054688 213.84375 127.625 218.53125 130.613281 C 218.535156 130.613281 215.5 135.941406 210.980469 133.054688 " fill-opacity="1" fill-rule="evenodd"/><path fill="#7da12d" d="M 214.878906 156.417969 C 214.878906 156.417969 210.394531 152.742188 214.085938 148.996094 C 214.085938 148.996094 218.429688 152.847656 214.878906 156.417969 " fill-opacity="1" fill-rule="evenodd"/><path fill="#7da12d" d="M 217.394531 144.015625 C 217.394531 144.015625 211.667969 142.570312 213.394531 137.519531 C 213.394531 137.519531 219.085938 139.171875 217.394531 144.015625 " fill-opacity="1" fill-rule="evenodd"/><path fill="#7da12d" d="M 214.53125 172.707031 C 214.53125 172.707031 215.636719 164.390625 223.121094 166.039062 C 223.121094 166.039062 221.707031 174.289062 214.53125 172.707031 " fill-opacity="1" fill-rule="evenodd"/><path fill="#7da12d" d="M 232.191406 146.351562 C 232.191406 146.351562 234.261719 139.273438 240.503906 141.679688 C 240.503906 141.679688 238.191406 148.652344 232.191406 146.351562 " fill-opacity="1" fill-rule="evenodd"/><path fill="#7da12d" d="M 227.222656 163.359375 C 227.222656 163.359375 232.949219 160.613281 235.019531 166.007812 C 235.019531 166.007812 229.191406 168.550781 227.222656 163.359375 " fill-opacity="1" fill-rule="evenodd"/><path fill="#7da12d" d="M 239.363281 163.945312 C 239.363281 163.945312 239.226562 157.929688 244.710938 158.273438 C 244.710938 158.273438 244.605469 164.289062 239.363281 163.945312 " fill-opacity="1" fill-rule="evenodd"/><path fill="#7da12d" d="M 229.742188 191.125 C 229.742188 191.125 238.125 187.929688 240.398438 195.730469 C 240.398438 195.730469 231.914062 198.613281 229.742188 191.125 " fill-opacity="1" fill-rule="evenodd"/><path fill="#7da12d" d="M 232.640625 183.769531 C 232.640625 183.769531 232.8125 177.757812 238.296875 178.375 C 238.296875 178.34375 237.882812 184.390625 232.640625 183.769531 " fill-opacity="1" fill-rule="evenodd"/><path fill="#7da12d" d="M 245.675781 182.570312 C 245.675781 182.570312 245.847656 176.554688 251.332031 177.171875 C 251.296875 177.140625 250.917969 183.1875 245.675781 182.570312 " fill-opacity="1" fill-rule="evenodd"/><path fill="#7da12d" d="M 232.640625 183.738281 C 232.640625 183.738281 232.847656 176.417969 239.46875 177.171875 C 239.46875 177.207031 238.984375 184.492188 232.640625 183.738281 " fill-opacity="1" fill-rule="evenodd"/><path fill="#7da12d" d="M 239.503906 171.160156 C 239.503906 171.160156 244.226562 168.101562 246.675781 172.605469 C 246.640625 172.605469 241.8125 175.523438 239.503906 171.160156 " fill-opacity="1" fill-rule="evenodd"/><path fill="#7da12d" d="M 232.570312 138.105469 C 232.570312 138.105469 230.363281 132.195312 235.914062 130.683594 C 235.914062 130.683594 237.917969 136.664062 232.570312 138.105469 " fill-opacity="1" fill-rule="evenodd"/><path fill="#7da12d" d="M 223.535156 142.023438 C 223.535156 142.023438 221.464844 137.347656 225.878906 135.835938 C 225.878906 135.871094 227.777344 140.613281 223.535156 142.023438 " fill-opacity="1" fill-rule="evenodd"/><path fill="#7da12d" d="M 212.289062 187.035156 C 212.289062 187.035156 217.5 190.917969 213.566406 195.316406 C 213.566406 195.316406 208.496094 191.261719 212.289062 187.035156 " fill-opacity="1" fill-rule="evenodd"/><path fill="#7da12d" d="M 245.503906 188.820312 C 245.503906 188.820312 250.816406 185.902344 253.058594 190.917969 C 253.058594 190.953125 247.640625 193.667969 245.503906 188.820312 " fill-opacity="1" fill-rule="evenodd"/><path fill="#7da12d" d="M 231.707031 156.351562 C 231.707031 156.351562 231.570312 149.996094 237.363281 150.335938 C 237.363281 150.335938 237.261719 156.695312 231.707031 156.351562 " fill-opacity="1" fill-rule="evenodd"/><g fill="#7da12d" fill-opacity="1"><g transform="translate(103.213631, 144.552415)"><g><path d="M -21.71875 -14.109375 L -17.921875 -20.765625 L -9.21875 -15.796875 L -13.96875 -27.671875 L -9.5 -35.515625 L -3.546875 -20.65625 L 13.3125 -23.296875 L 8.828125 -15.453125 L -4.84375 -13.296875 L 4.53125 -7.9375 L 0.734375 -1.28125 Z M -21.71875 -14.109375 "/></g></g></g><g fill="#7da12d" fill-opacity="1"><g transform="translate(116.434688, 120.934406)"><g><path d="M -9.171875 -26.59375 L -3.71875 -31.5625 L 21.296875 -19.359375 L 15.5 -14.078125 L 10.765625 -16.421875 L 4.5 -10.734375 L 6.34375 -5.765625 L 0.546875 -0.5 Z M 5.53125 -19.546875 L -1.171875 -23.234375 L 1.875 -16.21875 Z M 5.53125 -19.546875 "/></g></g></g><g fill="#7da12d" fill-opacity="1"><g transform="translate(138.193537, 101.611382)"><g><path d="M -9.65625 -24.03125 L 1.21875 -29.140625 C 4.039062 -30.472656 6.597656 -30.804688 8.890625 -30.140625 C 11.179688 -29.484375 12.957031 -27.816406 14.21875 -25.140625 C 15.03125 -23.410156 15.359375 -21.757812 15.203125 -20.1875 C 15.054688 -18.625 14.472656 -17.195312 13.453125 -15.90625 L 21.0625 -9.890625 L 13.953125 -6.5625 L 7.328125 -11.8125 L 5.046875 -10.75 L 8.265625 -3.890625 L 1.34375 -0.625 Z M 5.03125 -17.453125 C 6.101562 -17.960938 6.835938 -18.5625 7.234375 -19.25 C 7.628906 -19.9375 7.585938 -20.789062 7.109375 -21.8125 C 6.628906 -22.84375 5.992188 -23.425781 5.203125 -23.5625 C 4.421875 -23.707031 3.492188 -23.523438 2.421875 -23.015625 L -0.15625 -21.8125 L 2.453125 -16.25 Z M 5.03125 -17.453125 "/></g></g></g><g fill="#7da12d" fill-opacity="1"><g transform="translate(159.80646, 91.081455)"><g><path d="M 8.625 -11.21875 L -3.078125 -25.6875 L 5.03125 -26.890625 L 11.375 -18.8125 L 15.46875 -28.4375 L 23.515625 -29.625 L 16.203125 -12.34375 L 17.640625 -2.609375 L 10.0625 -1.484375 Z M 8.625 -11.21875 "/></g></g></g><g fill="#7da12d" fill-opacity="1"><g transform="translate(187.277007, 86.825787)"><g><path d="M 15.34375 -23.59375 L 22.609375 -22.34375 L 28.359375 4.90625 L 20.625 3.5625 L 19.578125 -1.609375 L 11.234375 -3.046875 L 8.453125 1.453125 L 0.71875 0.125 Z M 18.8125 -7.640625 L 17.609375 -15.203125 L 13.9375 -8.484375 Z M 18.8125 -7.640625 "/></g></g></g><g fill="#7da12d" fill-opacity="1"><g transform="translate(215.760779, 91.510169)"><g><path d="M 13.75 -21.9375 L 19.875 -18.578125 L 18.71875 -1.875 L 32.203125 -11.796875 L 38.328125 -8.4375 L 25.875 14.21875 L 19.625 10.78125 L 25.15625 0.734375 L 14.984375 8.234375 L 12.1875 6.703125 L 13.09375 -5.890625 L 7.5625 4.15625 L 1.296875 0.71875 Z M 13.75 -21.9375 "/></g></g></g><g fill="#7da12d" fill-opacity="1"><g transform="translate(242.272158, 106.881247)"><g><path d="M 19.40625 -17.15625 L 32.609375 -3.828125 L 28.046875 0.703125 L 20.234375 -7.1875 L 17.703125 -4.6875 L 23.328125 0.984375 L 19.15625 5.125 L 13.53125 -0.546875 L 11.015625 1.953125 L 18.828125 9.84375 L 14.25 14.375 L 1.046875 1.046875 Z M 19.40625 -17.15625 "/></g></g></g><g fill="#7da12d" fill-opacity="1"><g transform="translate(257.07669, 121.22568)"><g><path d="M 6.109375 11.9375 C 4.773438 9.582031 4.101562 7.367188 4.09375 5.296875 C 4.09375 3.222656 4.648438 1.367188 5.765625 -0.265625 C 6.878906 -1.898438 8.4375 -3.285156 10.4375 -4.421875 L 23.140625 -11.609375 L 26.90625 -4.9375 L 14.265625 2.21875 C 12.890625 3 12.035156 3.914062 11.703125 4.96875 C 11.367188 6.03125 11.554688 7.191406 12.265625 8.453125 C 12.984375 9.722656 13.878906 10.484375 14.953125 10.734375 C 16.035156 10.984375 17.265625 10.71875 18.640625 9.9375 L 31.28125 2.78125 L 35.0625 9.453125 L 22.359375 16.640625 C 20.359375 17.773438 18.367188 18.394531 16.390625 18.5 C 14.410156 18.613281 12.535156 18.140625 10.765625 17.078125 C 9.003906 16.015625 7.453125 14.300781 6.109375 11.9375 Z M 6.109375 11.9375 "/></g></g></g><g fill="#7da12d" fill-opacity="1"><g transform="translate(110.111348, 280.46998)"><g><path d="M 12.40625 -19.4375 L 18.46875 -15.8125 L 15.015625 -3.8125 L 23.84375 -12.59375 L 28.09375 -10.0625 L 24.28125 1.78125 L 33.234375 -6.984375 L 39.3125 -3.34375 L 22.203125 13.296875 L 16.703125 10 L 20.3125 -2.125 L 11.328125 6.78125 L 5.828125 3.484375 Z M 12.40625 -19.4375 "/></g></g></g><g fill="#7da12d" fill-opacity="1"><g transform="translate(143.331071, 298.575196)"><g><path d="M 7.890625 -21.71875 L 23.921875 -16.90625 L 22.265625 -11.40625 L 12.796875 -14.25 L 11.890625 -11.21875 L 18.71875 -9.171875 L 17.203125 -4.140625 L 10.375 -6.1875 L 9.46875 -3.140625 L 18.9375 -0.296875 L 17.28125 5.1875 L 1.25 0.375 Z M 7.890625 -21.71875 "/></g></g></g><g fill="#7da12d" fill-opacity="1"><g transform="translate(165.566691, 304.955708)"><g><path d="M 3.390625 -22.84375 L 15.375 -21.765625 C 17.625 -21.554688 19.375 -20.835938 20.625 -19.609375 C 21.875 -18.390625 22.40625 -16.75 22.21875 -14.6875 C 22.132812 -13.769531 21.847656 -12.921875 21.359375 -12.140625 C 20.878906 -11.367188 20.234375 -10.769531 19.421875 -10.34375 C 20.453125 -9.75 21.175781 -9.035156 21.59375 -8.203125 C 22.019531 -7.378906 22.175781 -6.332031 22.0625 -5.0625 C 21.925781 -3.644531 21.472656 -2.429688 20.703125 -1.421875 C 19.929688 -0.421875 18.941406 0.304688 17.734375 0.765625 C 16.535156 1.222656 15.234375 1.382812 13.828125 1.25 L 1.3125 0.125 Z M 12.8125 -13.015625 C 13.5625 -12.953125 14.140625 -13.066406 14.546875 -13.359375 C 14.953125 -13.648438 15.191406 -14.160156 15.265625 -14.890625 C 15.328125 -15.628906 15.1875 -16.160156 14.84375 -16.484375 C 14.5 -16.816406 13.929688 -17.019531 13.140625 -17.09375 L 9.765625 -17.40625 L 9.40625 -13.328125 Z M 12.375 -3.75 C 13.257812 -3.664062 13.925781 -3.769531 14.375 -4.0625 C 14.832031 -4.351562 15.097656 -4.90625 15.171875 -5.71875 C 15.242188 -6.507812 15.082031 -7.109375 14.6875 -7.515625 C 14.289062 -7.929688 13.628906 -8.179688 12.703125 -8.265625 L 8.96875 -8.609375 L 8.5625 -4.09375 Z M 12.375 -3.75 "/></g></g></g><g fill="#7da12d" fill-opacity="1"><g transform="translate(192.432394, 306.740848)"><g><path d="M 8.75 -0.484375 C 7.28125 -0.316406 5.785156 -0.296875 4.265625 -0.421875 C 2.742188 -0.554688 1.5 -0.816406 0.53125 -1.203125 L -0.15625 -7.1875 C 1.113281 -6.664062 2.425781 -6.316406 3.78125 -6.140625 C 5.144531 -5.972656 6.410156 -5.957031 7.578125 -6.09375 C 9.265625 -6.28125 10.0625 -6.816406 9.96875 -7.703125 C 9.925781 -8.078125 9.757812 -8.382812 9.46875 -8.625 C 9.1875 -8.875 8.78125 -9.09375 8.25 -9.28125 C 7.71875 -9.46875 6.875 -9.742188 5.71875 -10.109375 C 3.5 -10.796875 1.851562 -11.628906 0.78125 -12.609375 C -0.289062 -13.597656 -0.921875 -14.898438 -1.109375 -16.515625 C -1.265625 -17.867188 -1.023438 -19.117188 -0.390625 -20.265625 C 0.234375 -21.410156 1.1875 -22.351562 2.46875 -23.09375 C 3.757812 -23.84375 5.289062 -24.316406 7.0625 -24.515625 C 8.507812 -24.679688 9.800781 -24.710938 10.9375 -24.609375 C 12.082031 -24.515625 13.207031 -24.273438 14.3125 -23.890625 L 14.96875 -18.078125 C 12.957031 -18.921875 10.957031 -19.226562 8.96875 -19 C 8.09375 -18.894531 7.40625 -18.6875 6.90625 -18.375 C 6.414062 -18.0625 6.195312 -17.664062 6.25 -17.1875 C 6.3125 -16.707031 6.585938 -16.34375 7.078125 -16.09375 C 7.578125 -15.851562 8.515625 -15.546875 9.890625 -15.171875 L 10.65625 -14.953125 C 12.28125 -14.503906 13.546875 -14.015625 14.453125 -13.484375 C 15.367188 -12.960938 16.054688 -12.3125 16.515625 -11.53125 C 16.984375 -10.75 17.285156 -9.734375 17.421875 -8.484375 C 17.671875 -6.328125 17.078125 -4.546875 15.640625 -3.140625 C 14.210938 -1.734375 11.914062 -0.847656 8.75 -0.484375 Z M 8.75 -0.484375 "/></g></g></g><g fill="#7da12d" fill-opacity="1"><g transform="translate(215.286907, 303.477042)"><g><path d="M -4.6875 -22.625 L 1.921875 -24.390625 L 7.875 -2.109375 L 1.265625 -0.34375 Z M -4.6875 -22.625 "/></g></g></g><g fill="#7da12d" fill-opacity="1"><g transform="translate(228.52741, 299.998422)"><g><path d="M -1.09375 -18.421875 L -6.78125 -15.9375 L -9.078125 -21.1875 L 8.546875 -28.90625 L 10.84375 -23.65625 L 5.15625 -21.171875 L 12.09375 -5.296875 L 5.84375 -2.546875 Z M -1.09375 -18.421875 "/></g></g></g><g fill="#7da12d" fill-opacity="1"><g transform="translate(250.475345, 289.862323)"><g><path d="M -11.984375 -19.75 L 1.8125 -29.21875 L 5.0625 -24.5 L -3.09375 -18.90625 L -1.296875 -16.296875 L 4.578125 -20.328125 L 7.546875 -16 L 1.671875 -11.96875 L 3.46875 -9.34375 L 11.625 -14.9375 L 14.875 -10.21875 L 1.078125 -0.75 Z M -11.984375 -19.75 "/></g></g></g></svg>